<?xml version="1.0" standalone="no"?>
<!DOCTYPE svg PUBLIC "-//W3C//DTD SVG 20010904//EN"
 "http://www.w3.org/TR/2001/REC-SVG-20010904/DTD/svg10.dtd">
<svg version="1.0" xmlns="http://www.w3.org/2000/svg"
 width="16.000000pt" height="16.000000pt" viewBox="0 0 16.000000 16.000000"
 preserveAspectRatio="xMidYMid meet">
<metadata>
Created by potrace 1.11, written by Peter Selinger 2001-2013
</metadata>
<g transform="translate(0.000000,16.000000) scale(0.001778,-0.001778)"
fill="#000000" stroke="none">
<path d="M5766 7299 c-182 -45 -353 -220 -397 -404 -6 -28 -11 -88 -11 -135 1
-368 258 -715 822 -1109 l160 -113 48 39 c26 22 121 95 212 164 267 201 456
397 556 576 81 145 142 402 116 492 -6 20 -16 62 -22 94 -17 83 -71 184 -132
245 -60 60 -161 115 -245 132 -82 17 -252 8 -333 -19 -65 -21 -182 -83 -231
-122 l-26 -20 -56 55 c-34 33 -86 69 -132 92 -72 35 -82 38 -183 40 -59 2
-124 -1 -146 -7z m88 -199 c55 -21 14 -90 -65 -109 -24 -6 -60 -19 -79 -29
l-35 -17 -6 -110 c-3 -61 -11 -121 -18 -133 -12 -23 -13 -23 -33 -5 -34 31
-48 69 -48 135 0 170 156 317 284 268z"/>
<path d="M3690 6795 c-436 -54 -841 -243 -1143 -533 -338 -326 -576 -778 -621
-1182 -4 -30 -12 -92 -18 -138 -13 -96 -1 -242 38 -438 101 -518 448 -989 962
-1307 84 -52 264 -147 278 -147 13 0 -5 174 -31 310 -14 74 -28 167 -32 206
l-6 71 -79 58 c-105 75 -255 220 -334 321 -252 322 -343 696 -264 1082 97 478
461 925 898 1104 535 219 1182 74 1622 -362 200 -198 327 -418 392 -676 30
-122 33 -407 4 -529 -56 -243 -175 -474 -348 -680 -129 -154 -262 -257 -443
-346 -136 -66 -223 -97 -485 -169 -101 -28 -188 -54 -192 -56 -4 -3 0 -22 10
-42 11 -20 38 -95 61 -167 23 -71 55 -154 72 -184 l31 -54 70 7 c223 21 496
112 704 235 548 325 911 907 983 1573 38 342 -25 707 -173 1012 -237 489 -701
863 -1228 991 -218 53 -498 68 -728 40z"/>
<path d="M4904 5570 c-428 -77 -751 -235 -1033 -505 -313 -300 -522 -671 -601
-1071 -31 -155 -39 -446 -16 -603 63 -423 241 -784 535 -1080 251 -254 557
-432 892 -520 314 -83 675 -85 990 -5 782 196 1378 857 1495 1658 23 160 16
471 -16 616 -80 374 -252 683 -532 956 -51 50 -122 115 -158 144 -94 77 -287
202 -411 265 l-107 55 -7 -118 c-10 -161 -1 -303 25 -379 30 -88 87 -147 216
-224 157 -95 270 -230 384 -464 98 -201 125 -325 125 -565 -1 -153 -4 -189
-27 -287 -107 -454 -430 -848 -873 -1064 -217 -105 -413 -152 -645 -153 -385
-1 -702 136 -1000 434 -206 206 -334 443 -381 710 -18 99 -18 333 0 440 109
666 663 1213 1332 1316 60 9 109 20 109 23 0 25 -55 203 -80 258 -31 68 -101
183 -110 182 -3 0 -50 -9 -106 -19z"/>
</g>
</svg>
